<?xml version="1.0" encoding="UTF-8" standalone="no"?>
<svg
   xmlns:dc="http://purl.org/dc/elements/1.1/"
   xmlns:cc="http://creativecommons.org/ns#"
   xmlns:rdf="http://www.w3.org/1999/02/22-rdf-syntax-ns#"
   xmlns:svg="http://www.w3.org/2000/svg"
   xmlns="http://www.w3.org/2000/svg"
   viewBox="0 0 816 1056"
   height="1056"
   width="816"
   xml:space="preserve"
   id="svg2"
   version="1.1"><metadata
     id="metadata8"><rdf:RDF><cc:Work
         rdf:about=""><dc:format>image/svg+xml</dc:format><dc:type
           rdf:resource="http://purl.org/dc/dcmitype/StillImage" /></cc:Work></rdf:RDF></metadata><defs
     id="defs6"><clipPath
       id="clipPath24"
       clipPathUnits="userSpaceOnUse"><path
         id="path22"
         d="M 0,792 H 612 V 0 H 0 Z" /></clipPath></defs><g
     transform="matrix(1.3333333,0,0,-1.3333333,0,1056)"
     id="g10"><g
       transform="translate(72.269,56.1323)"
       id="g12"><path
         id="path14"
         style="fill:#231f20;fill-opacity:1;fill-rule:evenodd;stroke:none"
         d="M 0,0 H 0.624 V 3.804 H 5.376 V 4.38 H 0.624 V 7.824 H 5.916 V 8.4 H 0 Z" /></g><path
       id="path16"
       style="fill:#231f20;fill-opacity:1;fill-rule:nonzero;stroke:none"
       d="m 80.021,63.849 h 0.732 v 0.804 h -0.732 z m 0.072,-7.717 h 0.588 v 6.12 h -0.588 z" /><g
       id="g18"><g
         clip-path="url(#clipPath24)"
         id="g20"><g
           transform="translate(82.9966,56.1323)"
           id="g26"><path
             id="path28"
             style="fill:#231f20;fill-opacity:1;fill-rule:evenodd;stroke:none"
             d="m 0,0 h 0.588 v 3.54 c 0,1.272 0.924,2.184 2.124,2.184 1.236,0 1.944,-0.828 1.944,-2.088 V 0 h 0.588 v 3.744 c 0,1.464 -0.9,2.52 -2.448,2.52 C 1.68,6.264 0.996,5.7 0.588,4.98 V 6.12 H 0 Z" /></g><g
           transform="translate(92.249,56.5405)"
           id="g30"><path
             id="path32"
             style="fill:#231f20;fill-opacity:1;fill-rule:evenodd;stroke:none"
             d="m 0,0 c -0.937,0 -1.776,0.516 -1.776,1.404 v 0.024 c 0,0.852 0.719,1.428 2.016,1.428 0.876,0 1.56,-0.144 2.075,-0.276 V 1.884 C 2.315,0.768 1.248,0 0,0 m -0.036,-0.552 c 1.163,0 1.92,0.576 2.34,1.164 v -1.02 H 2.88 v 3.816 c 0,0.756 -0.216,1.32 -0.625,1.728 -0.443,0.444 -1.103,0.672 -1.931,0.672 -0.841,0 -1.5,-0.216 -2.172,-0.528 l 0.216,-0.516 c 0.564,0.288 1.175,0.492 1.92,0.492 1.26,0 2.016,-0.636 2.016,-1.872 V 3.12 C 1.716,3.276 1.127,3.384 0.276,3.384 -1.308,3.384 -2.4,2.664 -2.4,1.392 V 1.368 c 0,-1.272 1.224,-1.92 2.364,-1.92" /></g><path
           id="path34"
           style="fill:#231f20;fill-opacity:1;fill-rule:evenodd;stroke:none"
           d="m 97.325,56.132 h 0.588 v 8.76 h -0.588 z" /><g
           transform="translate(104.0444,58.7246)"
           id="g36"><path
             id="path38"
             style="fill:#231f20;fill-opacity:1;fill-rule:evenodd;stroke:none"
             d="M 0,0 4.008,4.968 V 0 Z m 4.008,-2.592 h 0.6 V -0.54 H 5.976 V 0 H 4.608 V 5.868 H 4.044 l -4.8,-5.94 0.216,-0.468 h 4.548 z" /></g><g
           transform="translate(116.4282,56.1323)"
           id="g40"><path
             id="path42"
             style="fill:#231f20;fill-opacity:1;fill-rule:evenodd;stroke:none"
             d="M 0,0 H 0.612 V 8.46 H 0.132 L -1.788,7.752 -1.62,7.26 0,7.812 Z" /></g><g
           transform="translate(121.9238,55.9883)"
           id="g44"><path
             id="path46"
             style="fill:#231f20;fill-opacity:1;fill-rule:evenodd;stroke:none"
             d="m 0,0 c 1.692,0 2.928,1.116 2.928,2.7 v 0.024 c 0,1.5 -1.26,2.532 -2.88,2.532 -0.78,0 -1.32,-0.192 -1.86,-0.456 l 0.204,3.144 h 4.164 v 0.6 H -2.16 L -2.4,4.476 -1.92,4.164 c 0.528,0.288 1.116,0.528 1.896,0.528 C 1.332,4.692 2.28,3.864 2.28,2.7 V 2.676 C 2.28,1.5 1.356,0.564 0.024,0.564 c -0.888,0 -1.764,0.48 -2.52,1.236 L -2.94,1.356 C -2.208,0.612 -1.14,0 0,0" /></g><g
           transform="translate(131.3076,56.1323)"
           id="g48"><path
             id="path50"
             style="fill:#231f20;fill-opacity:1;fill-rule:evenodd;stroke:none"
             d="M 0,0 H 0.612 V 8.46 H 0.132 L -1.788,7.752 -1.62,7.26 0,7.812 Z" /></g><g
           transform="translate(137.1997,56.5527)"
           id="g52"><path
             id="path54"
             style="fill:#231f20;fill-opacity:1;fill-rule:evenodd;stroke:none"
             d="m 0,0 c -1.356,0 -2.376,0.912 -2.376,2.112 v 0.024 c 0,1.031 0.96,2.076 2.34,2.076 1.332,0 2.28,-0.864 2.28,-2.016 V 2.172 C 2.244,0.984 1.356,0 0,0 m -0.048,-0.564 c 1.656,0 2.94,1.176 2.94,2.76 V 2.22 c 0,1.5 -1.368,2.544 -2.892,2.544 -1.2,0 -2.04,-0.564 -2.628,-1.56 v 0.24 c 0,2.364 1.056,4.116 2.748,4.116 0.792,0 1.428,-0.312 2.076,-0.888 l 0.396,0.48 C 1.86,7.751 1.128,8.124 0.168,8.124 c -2.088,0 -3.42,-2.016 -3.42,-4.548 V 3.552 c 0,-1.74 0.372,-2.58 1.068,-3.276 0.504,-0.504 1.272,-0.84 2.136,-0.84" /></g><g
           transform="translate(241.8628,310.9722)"
           id="g56"><path
             id="path58"
             style="fill:#359392;fill-opacity:1;fill-rule:nonzero;stroke:none"
             d="m 0,0 c 0,7.043 5.709,12.752 12.752,12.752 h 112.22 c 7.043,0 12.752,-5.709 12.752,-12.752 v -112.22 c 0,-7.043 -5.709,-12.752 -12.752,-12.752 H 12.752 C 5.709,-124.972 0,-119.263 0,-112.22 Z" /></g><g
           transform="translate(412.7427,312.2476)"
           id="g60"><path
             id="path62"
             style="fill:#bd8f20;fill-opacity:1;fill-rule:evenodd;stroke:none"
             d="m 0,0 c 0,7.042 5.709,12.752 12.752,12.752 h 112.22 c 7.043,0 12.752,-5.71 12.752,-12.752 v -112.22 c 0,-7.043 -5.709,-12.752 -12.752,-12.752 H 12.752 C 5.709,-124.972 0,-119.263 0,-112.22 Z" /></g><g
           transform="translate(73.5332,312.2476)"
           id="g64"><path
             id="path66"
             style="fill:#610040;fill-opacity:1;fill-rule:nonzero;stroke:none"
             d="m 0,0 c 0,7.042 5.709,12.752 12.752,12.752 h 112.22 c 7.043,0 12.752,-5.71 12.752,-12.752 v -112.22 c 0,-7.043 -5.709,-12.752 -12.752,-12.752 H 12.752 C 5.709,-124.972 0,-119.263 0,-112.22 Z" /></g><g
           transform="translate(155.6294,267.8921)"
           id="g68"><path
             id="path70"
             style="fill:#ffffff;fill-opacity:1;fill-rule:nonzero;stroke:none"
             d="m 0,0 c 0.01,-0.549 -0.194,-1.071 -0.578,-1.468 -0.381,-0.396 -0.893,-0.62 -1.443,-0.63 -0.55,-0.011 -1.07,0.193 -1.464,0.575 -5.226,5.03 -13.569,4.874 -18.599,-0.348 -0.381,-0.398 -0.894,-0.621 -1.443,-0.631 -0.55,-0.011 -1.071,0.193 -1.466,0.575 -0.397,0.383 -0.622,0.895 -0.632,1.446 -0.011,0.55 0.194,1.07 0.575,1.464 6.605,6.86 17.559,7.065 24.418,0.46 C -0.235,1.062 -0.01,0.549 0,0" /></g><g
           transform="translate(165.252,276.2402)"
           id="g72"><path
             id="path74"
             style="fill:#ffffff;fill-opacity:1;fill-rule:nonzero;stroke:none"
             d="m 0,0 c 0.01,-0.55 -0.195,-1.07 -0.576,-1.468 -0.788,-0.817 -2.093,-0.842 -2.911,-0.055 -5.191,5 -12.03,7.678 -19.254,7.542 -7.224,-0.135 -13.956,-3.069 -18.956,-8.261 -0.788,-0.818 -2.094,-0.841 -2.912,-0.053 -0.396,0.381 -0.619,0.892 -0.63,1.441 -0.01,0.55 0.194,1.071 0.575,1.467 5.761,5.982 13.518,9.363 21.846,9.519 8.325,0.158 16.206,-2.93 22.187,-8.69 C -0.235,1.062 -0.012,0.549 0,0" /></g><g
           transform="translate(173.957,286.2651)"
           id="g76"><path
             id="path78"
             style="fill:#ffffff;fill-opacity:1;fill-rule:nonzero;stroke:none"
             d="m 0,0 c 0.014,-0.76 -0.268,-1.48 -0.796,-2.03 -1.09,-1.131 -2.896,-1.166 -4.028,-0.077 -7.181,6.916 -16.643,10.623 -26.637,10.434 -9.997,-0.186 -19.31,-4.246 -26.228,-11.43 -1.09,-1.13 -2.896,-1.164 -4.028,-0.074 -0.548,0.529 -0.858,1.237 -0.872,1.996 -0.014,0.761 0.269,1.481 0.797,2.03 7.969,8.275 18.702,12.952 30.223,13.169 C -20.049,14.236 -9.146,9.966 -0.871,1.996 -0.323,1.469 -0.015,0.76 0,0" /></g><g
           transform="translate(100.1777,278.5571)"
           id="g80"><path
             id="path82"
             style="fill:#ffffff;fill-opacity:1;fill-rule:nonzero;stroke:none"
             d="m 0,0 -0.02,-43.671 0.788,0.67 c -0.243,-0.207 -0.501,-0.426 -0.788,-0.67 34.139,8.751 40.067,-8.819 40.067,-8.819 0,0.261 -4.772,22.587 -34.056,14.946 0,0 -0.168,-0.143 -0.781,-0.664 l 0.781,0.664 -0.062,39.93 z" /></g><g
           transform="translate(87.4526,266.4688)"
           id="g84"><path
             id="path86"
             style="fill:#ffffff;fill-opacity:1;fill-rule:nonzero;stroke:none"
             d="m 0,0 -0.02,-43.671 0.788,0.67 c -0.243,-0.207 -0.501,-0.426 -0.788,-0.67 39.113,12.018 50.645,1.043 50.645,1.043 0,0.26 -7.396,16.304 -44.634,5.084 0,0 -0.168,-0.143 -0.781,-0.664 l 0.781,0.664 -0.062,39.93 z" /></g><g
           transform="translate(185.3623,278.5571)"
           id="g88"><path
             id="path90"
             style="fill:#ffffff;fill-opacity:1;fill-rule:nonzero;stroke:none"
             d="m 0,0 0.02,-43.671 -0.788,0.67 c 0.243,-0.207 0.501,-0.426 0.788,-0.67 -34.139,8.751 -40.067,-8.819 -40.067,-8.819 0,0.261 4.771,22.587 34.056,14.946 0,0 0.168,-0.143 0.781,-0.664 l -0.781,0.664 0.062,39.93 z" /></g><g
           transform="translate(198.0869,266.4688)"
           id="g92"><path
             id="path94"
             style="fill:#ffffff;fill-opacity:1;fill-rule:nonzero;stroke:none"
             d="m 0,0 0.02,-43.671 -0.788,0.67 c 0.243,-0.207 0.501,-0.426 0.788,-0.67 -39.113,12.018 -50.645,1.043 -50.645,1.043 0,0.26 7.396,16.304 44.634,5.084 0,0 0.168,-0.143 0.781,-0.664 l -0.781,0.664 0.062,39.93 z" /></g><g
           transform="translate(153.4673,224.9692)"
           id="g96"><path
             id="path98"
             style="fill:#ffffff;fill-opacity:1;fill-rule:nonzero;stroke:none"
             d="m 0,0 c -1.137,-3.518 -5.518,-6.139 -10.737,-6.139 -5.266,0 -9.669,2.668 -10.757,6.234 -0.095,-0.421 -0.258,-1.021 -0.258,-1.462 0,-4.392 4.931,-7.953 11.015,-7.953 6.083,0 11.015,3.561 11.015,7.953 C 0.278,-0.953 0.084,-0.397 0,0" /></g><g
           transform="translate(462.2183,281.2412)"
           id="g100"><path
             id="path102"
             style="fill:#ffffff;fill-opacity:1;fill-rule:nonzero;stroke:none"
             d="m 0,0 h -4.114 -0.09 -0.162 c -0.056,0 -0.11,-0.012 -0.164,-0.017 -3.081,-0.172 -5.551,-2.738 -5.551,-5.86 v -11.806 c 0,-3.122 2.47,-5.689 5.551,-5.861 0.054,-0.004 0.108,-0.016 0.164,-0.016 h 0.162 0.09 H 0 c 0.969,0 1.763,0.793 1.763,1.763 v 4.114 11.806 4.114 C 1.763,-0.793 0.969,0 0,0" /></g><g
           transform="translate(511.0195,275.3916)"
           id="g104"><path
             id="path106"
             style="fill:#ffffff;fill-opacity:1;fill-rule:nonzero;stroke:none"
             d="m 0,0 c -0.011,3.16 -2.55,5.742 -5.684,5.847 -0.009,0 -0.017,0.003 -0.026,0.003 h -0.032 c -0.052,0.001 -0.104,0.007 -0.157,0.007 h -0.117 c -0.046,0 -0.09,-0.006 -0.136,-0.007 h -3.978 c -0.97,0 -1.763,-0.793 -1.763,-1.764 v -20.033 c 0,-0.97 0.793,-1.763 1.763,-1.763 h 4.42 c 0.092,0 0.182,0.014 0.272,0.027 3.059,0.204 5.494,2.77 5.483,5.877 z" /></g><g
           transform="translate(499.0864,284.7671)"
           id="g108"><path
             id="path110"
             style="fill:#ffffff;fill-opacity:1;fill-rule:nonzero;stroke:none"
             d="M 0,0 H 4.908 C 2.305,9.931 -6.746,17.279 -17.482,17.279 -28.218,17.279 -37.268,9.931 -39.872,0 h 4.91 c 2.456,7.302 9.361,12.578 17.48,12.578 C -9.362,12.578 -2.457,7.302 0,0" /></g><g
           transform="translate(439.1958,276.9028)"
           id="g112"><path
             id="path114"
             style="fill:#ffffff;fill-opacity:1;fill-rule:nonzero;stroke:none"
             d="m 0,0 -0.02,-43.629 0.787,0.669 c -0.243,-0.206 -0.5,-0.425 -0.787,-0.669 34.105,8.743 40.028,-8.81 40.028,-8.81 0,0.26 -4.767,22.564 -34.023,14.931 0,0 -0.168,-0.142 -0.78,-0.662 l 0.78,0.662 -0.062,39.891 z" /></g><g
           transform="translate(426.4834,264.8257)"
           id="g116"><path
             id="path118"
             style="fill:#ffffff;fill-opacity:1;fill-rule:nonzero;stroke:none"
             d="m 0,0 -0.02,-43.628 0.787,0.669 c -0.243,-0.207 -0.5,-0.426 -0.787,-0.669 39.075,12.006 50.596,1.042 50.596,1.042 0,0.259 -7.389,16.288 -44.591,5.079 0,0 -0.168,-0.143 -0.78,-0.663 l 0.78,0.663 -0.062,39.891 z" /></g><g
           transform="translate(524.2979,276.9028)"
           id="g120"><path
             id="path122"
             style="fill:#ffffff;fill-opacity:1;fill-rule:nonzero;stroke:none"
             d="m 0,0 0.02,-43.629 -0.788,0.669 c 0.243,-0.206 0.501,-0.425 0.788,-0.669 -34.106,8.743 -40.029,-8.81 -40.029,-8.81 0,0.26 4.767,22.564 34.024,14.931 0,0 0.167,-0.142 0.779,-0.662 l -0.779,0.662 0.061,39.891 z" /></g><g
           transform="translate(537.0098,264.8257)"
           id="g124"><path
             id="path126"
             style="fill:#ffffff;fill-opacity:1;fill-rule:nonzero;stroke:none"
             d="m 0,0 0.02,-43.628 -0.787,0.669 c 0.243,-0.207 0.5,-0.426 0.787,-0.669 -39.075,12.006 -50.596,1.042 -50.596,1.042 0,0.259 7.389,16.288 44.591,5.079 0,0 0.168,-0.143 0.78,-0.663 l -0.78,0.663 0.062,39.891 z" /></g><g
           transform="translate(492.4336,223.3667)"
           id="g128"><path
             id="path130"
             style="fill:#ffffff;fill-opacity:1;fill-rule:nonzero;stroke:none"
             d="m 0,0 c -1.136,-3.515 -5.513,-6.133 -10.727,-6.133 -5.26,0 -9.659,2.665 -10.746,6.228 -0.095,-0.421 -0.258,-1.02 -0.258,-1.461 0,-4.388 4.927,-7.945 11.004,-7.945 6.078,0 11.004,3.557 11.004,7.945 C 0.277,-0.952 0.084,-0.396 0,0" /></g><g
           transform="translate(288.9297,247.0786)"
           id="g132"><path
             id="path134"
             style="fill:#ffffff;fill-opacity:1;fill-rule:nonzero;stroke:none"
             d="M 0,0 30.146,24.143 24.469,29.82 18.744,35.546 -5.351,5.351 Z" /></g><g
           transform="translate(335.3604,280.3931)"
           id="g136"><path
             id="path138"
             style="fill:#ffffff;fill-opacity:1;fill-rule:nonzero;stroke:none"
             d="m 0,0 c 3.046,5.19 2.358,11.966 -2.096,16.419 -4.453,4.455 -11.23,5.142 -16.419,2.096 z" /></g><g
           transform="translate(312.9805,295.5249)"
           id="g140"><path
             id="path142"
             style="fill:#ffffff;fill-opacity:1;fill-rule:nonzero;stroke:none"
             d="M 0,0 C -2.223,-2.868 -3.132,-6.424 -2.734,-9.858 L 9.138,-21.73 c 3.435,-0.399 6.99,0.511 9.859,2.734 z" /></g><g
           transform="translate(267.4243,274.3286)"
           id="g144"><path
             id="path146"
             style="fill:#ffffff;fill-opacity:1;fill-rule:nonzero;stroke:none"
             d="m 0,0 -0.02,-44.332 0.8,0.68 c -0.247,-0.21 -0.509,-0.432 -0.8,-0.68 34.655,8.884 40.673,-8.952 40.673,-8.952 0,0.264 -4.844,22.929 -34.571,15.172 0,0 -0.171,-0.145 -0.792,-0.673 l 0.792,0.673 -0.063,40.534 z" /></g><g
           transform="translate(254.5073,262.0571)"
           id="g148"><path
             id="path150"
             style="fill:#ffffff;fill-opacity:1;fill-rule:nonzero;stroke:none"
             d="m 0,0 -0.021,-44.332 0.8,0.68 c -0.246,-0.209 -0.508,-0.432 -0.8,-0.68 39.705,12.201 51.411,1.06 51.411,1.06 0,0.263 -7.508,16.549 -45.308,5.16 0,0 -0.171,-0.145 -0.793,-0.673 l 0.793,0.673 -0.063,40.534 z" /></g><g
           transform="translate(353.8975,274.3286)"
           id="g152"><path
             id="path154"
             style="fill:#ffffff;fill-opacity:1;fill-rule:nonzero;stroke:none"
             d="m 0,0 0.02,-44.332 -0.8,0.68 c 0.247,-0.21 0.509,-0.432 0.8,-0.68 -34.655,8.884 -40.673,-8.952 -40.673,-8.952 0,0.264 4.844,22.929 34.571,15.172 0,0 0.171,-0.145 0.793,-0.673 l -0.793,0.673 0.063,40.534 z" /></g><g
           transform="translate(366.8145,262.0571)"
           id="g156"><path
             id="path158"
             style="fill:#ffffff;fill-opacity:1;fill-rule:nonzero;stroke:none"
             d="m 0,0 0.021,-44.332 -0.8,0.68 c 0.246,-0.209 0.508,-0.432 0.8,-0.68 -39.705,12.201 -51.411,1.06 -51.411,1.06 0,0.263 7.508,16.549 45.309,5.16 0,0 0.17,-0.145 0.792,-0.673 l -0.792,0.673 0.062,40.534 z" /></g><g
           transform="translate(321.52,219.9302)"
           id="g160"><path
             id="path162"
             style="fill:#ffffff;fill-opacity:1;fill-rule:nonzero;stroke:none"
             d="m 0,0 c -1.154,-3.572 -5.602,-6.232 -10.899,-6.232 -5.346,0 -9.815,2.709 -10.92,6.328 -0.097,-0.428 -0.262,-1.036 -0.262,-1.484 0,-4.459 5.006,-8.073 11.182,-8.073 6.175,0 11.181,3.614 11.181,8.073 C 0.282,-0.968 0.085,-0.403 0,0" /></g><g
           transform="translate(323.9458,669.395)"
           id="g164"><path
             id="path166"
             style="fill:#610040;fill-opacity:1;fill-rule:nonzero;stroke:none"
             d="m 0,0 c 0.02,-1.074 -0.38,-2.096 -1.131,-2.874 -0.746,-0.775 -1.749,-1.214 -2.827,-1.234 -1.075,-0.021 -2.093,0.379 -2.865,1.126 -10.232,9.849 -26.565,9.542 -36.412,-0.681 -0.747,-0.778 -1.75,-1.215 -2.825,-1.235 -1.077,-0.021 -2.096,0.378 -2.871,1.125 -0.777,0.749 -1.216,1.753 -1.236,2.831 -0.021,1.077 0.38,2.095 1.125,2.867 12.931,13.43 34.376,13.832 47.805,0.9 C -0.459,2.078 -0.02,1.074 0,0" /></g><g
           transform="translate(342.7847,685.7388)"
           id="g168"><path
             id="path170"
             style="fill:#610040;fill-opacity:1;fill-rule:nonzero;stroke:none"
             d="m 0,0 c 0.02,-1.076 -0.381,-2.095 -1.128,-2.874 -1.542,-1.6 -4.098,-1.647 -5.699,-0.108 -10.162,9.788 -23.551,15.033 -37.694,14.765 -14.143,-0.264 -27.324,-6.008 -37.112,-16.173 -1.542,-1.601 -4.098,-1.646 -5.701,-0.104 -0.775,0.747 -1.212,1.747 -1.233,2.823 -0.02,1.076 0.379,2.095 1.126,2.871 11.277,11.711 26.464,18.33 42.768,18.637 C -28.374,20.145 -12.944,14.1 -1.235,2.823 -0.46,2.078 -0.023,1.074 0,0" /></g><g
           transform="translate(359.8271,705.3652)"
           id="g172"><path
             id="path174"
             style="fill:#610040;fill-opacity:1;fill-rule:nonzero;stroke:none"
             d="m 0,0 c 0.028,-1.489 -0.524,-2.898 -1.558,-3.974 -2.134,-2.215 -5.671,-2.284 -7.886,-0.152 -14.06,13.541 -32.583,20.797 -52.15,20.428 -19.57,-0.364 -37.803,-8.312 -51.347,-22.376 -2.134,-2.213 -5.671,-2.279 -7.886,-0.145 -1.072,1.034 -1.68,2.421 -1.707,3.906 -0.028,1.49 0.525,2.9 1.56,3.974 15.601,16.202 36.614,25.358 59.169,25.782 C -39.252,27.87 -17.907,19.512 -1.706,3.908 -0.633,2.876 -0.029,1.488 0,0" /></g><g
           transform="translate(215.3848,690.2747)"
           id="g176"><path
             id="path178"
             style="fill:#610040;fill-opacity:1;fill-rule:nonzero;stroke:none"
             d="m 0,0 -0.04,-85.497 1.542,1.31 c -0.475,-0.404 -0.98,-0.833 -1.542,-1.31 66.836,17.132 78.443,-17.265 78.443,-17.265 0,0.509 -9.342,44.219 -66.674,29.26 0,0 -0.33,-0.279 -1.529,-1.3 l 1.529,1.3 -0.122,78.174 z" /></g><g
           transform="translate(190.4717,666.6084)"
           id="g180"><path
             id="path182"
             style="fill:#610040;fill-opacity:1;fill-rule:nonzero;stroke:none"
             d="m 0,0 -0.039,-85.498 1.543,1.311 c -0.475,-0.404 -0.981,-0.834 -1.543,-1.311 76.575,23.529 99.151,2.042 99.151,2.042 0,0.509 -14.481,31.919 -87.383,9.954 0,0 -0.328,-0.28 -1.528,-1.299 l 1.528,1.299 -0.121,78.173 z" /></g><g
           transform="translate(382.1558,690.2747)"
           id="g184"><path
             id="path186"
             style="fill:#610040;fill-opacity:1;fill-rule:nonzero;stroke:none"
             d="m 0,0 0.04,-85.497 -1.543,1.31 c 0.476,-0.404 0.98,-0.833 1.543,-1.31 -66.836,17.132 -78.443,-17.265 -78.443,-17.265 0,0.509 9.341,44.219 66.675,29.26 0,0 0.328,-0.279 1.527,-1.3 l -1.527,1.3 0.12,78.174 z" /></g><g
           transform="translate(407.0679,666.6084)"
           id="g188"><path
             id="path190"
             style="fill:#610040;fill-opacity:1;fill-rule:nonzero;stroke:none"
             d="m 0,0 0.039,-85.498 -1.543,1.311 c 0.476,-0.404 0.981,-0.834 1.543,-1.311 -76.574,23.529 -99.151,2.042 -99.151,2.042 0,0.509 14.481,31.919 87.383,9.954 0,0 0.328,-0.28 1.528,-1.299 l -1.528,1.299 0.121,78.173 z" /></g><g
           transform="translate(319.7129,585.3623)"
           id="g192"><path
             id="path194"
             style="fill:#610040;fill-opacity:1;fill-rule:nonzero;stroke:none"
             d="m 0,0 c -2.226,-6.888 -10.803,-12.018 -21.021,-12.018 -10.309,0 -18.929,5.222 -21.06,12.204 -0.186,-0.825 -0.504,-1.999 -0.504,-2.863 0,-8.598 9.654,-15.569 21.564,-15.569 11.91,0 21.565,6.971 21.565,15.569 0,0.811 -0.379,1.9 -0.544,2.677" /></g><g
           transform="translate(208.2397,529.9023)"
           id="g196"><path
             id="path198"
             style="fill:#231f20;fill-opacity:1;fill-rule:nonzero;stroke:none"
             d="m 0,0 v 0.08 c 0,7.559 5.479,14.478 13.838,14.478 4.559,0 7.438,-1.36 10.238,-3.68 l -1.36,-1.559 c -2.199,1.919 -4.759,3.359 -8.998,3.359 C 6.919,12.678 2.16,6.919 2.16,0.16 V 0.08 c 0,-7.239 4.519,-12.638 11.998,-12.638 3.559,0 6.879,1.48 8.918,3.2 V -1.32 H 13.718 V 0.6 h 11.358 v -10.798 c -2.52,-2.24 -6.439,-4.199 -10.998,-4.199 C 5.239,-14.397 0,-7.878 0,0" /></g><g
           transform="translate(240.8394,543.98)"
           id="g200"><path
             id="path202"
             style="fill:#231f20;fill-opacity:1;fill-rule:nonzero;stroke:none"
             d="m 0,0 h 2.08 v -26.076 h 16.437 v -1.919 H 0 Z" /></g><g
           transform="translate(269.5176,527.063)"
           id="g204"><path
             id="path206"
             style="fill:#231f20;fill-opacity:1;fill-rule:nonzero;stroke:none"
             d="m 0,0 -11.998,16.917 h 2.6 L 1.08,1.88 11.598,16.917 h 2.48 L 2.08,0.04 V -11.078 H 0 Z" /></g><g
           transform="translate(285.8394,520.064)"
           id="g208"><path
             id="path210"
             style="fill:#231f20;fill-opacity:1;fill-rule:nonzero;stroke:none"
             d="m 0,0 1.36,1.56 c 3.079,-2.84 5.919,-4.159 10.038,-4.159 4.2,0 7.079,2.359 7.079,5.558 V 3.04 c 0,2.959 -1.56,4.679 -7.918,5.959 -6.72,1.359 -9.439,3.639 -9.439,7.878 v 0.081 c 0,4.159 3.799,7.358 8.999,7.358 4.079,0 6.758,-1.12 9.598,-3.399 l -1.32,-1.64 c -2.639,2.28 -5.279,3.16 -8.358,3.16 -4.12,0 -6.839,-2.36 -6.839,-5.28 v -0.08 c 0,-2.959 1.519,-4.759 8.158,-6.119 6.479,-1.319 9.199,-3.639 9.199,-7.718 V 3.16 c 0,-4.519 -3.88,-7.639 -9.279,-7.639 C 6.799,-4.479 3.36,-3 0,0" /></g><g
           transform="translate(311.0396,520.064)"
           id="g212"><path
             id="path214"
             style="fill:#231f20;fill-opacity:1;fill-rule:nonzero;stroke:none"
             d="m 0,0 1.36,1.56 c 3.079,-2.84 5.919,-4.159 10.038,-4.159 4.2,0 7.079,2.359 7.079,5.558 V 3.04 c 0,2.959 -1.56,4.679 -7.918,5.959 -6.72,1.359 -9.439,3.639 -9.439,7.878 v 0.081 c 0,4.159 3.799,7.358 8.999,7.358 4.079,0 6.758,-1.12 9.598,-3.399 l -1.32,-1.64 c -2.639,2.28 -5.279,3.16 -8.358,3.16 -4.12,0 -6.839,-2.36 -6.839,-5.28 v -0.08 c 0,-2.959 1.519,-4.759 8.158,-6.119 6.479,-1.319 9.199,-3.639 9.199,-7.718 V 3.16 c 0,-4.519 -3.88,-7.639 -9.279,-7.639 C 6.799,-4.479 3.36,-3 0,0" /></g><g
           transform="translate(338.4395,543.98)"
           id="g216"><path
             id="path218"
             style="fill:#231f20;fill-opacity:1;fill-rule:nonzero;stroke:none"
             d="M 0,0 H 19.917 V -1.919 H 2.08 v -10.998 h 16.037 v -1.92 H 2.08 v -11.239 h 18.037 v -1.919 H 0 Z" /></g><g
           transform="translate(365.2393,543.98)"
           id="g220"><path
             id="path222"
             style="fill:#231f20;fill-opacity:1;fill-rule:nonzero;stroke:none"
             d="M 0,0 H 1.96 L 21.276,-24.356 V 0 h 2 v -27.995 h -1.56 L 2,-3.119 V -27.995 H 0 Z" /></g></g></g></g></svg>